<svg xmlns="http://www.w3.org/2000/svg" version="1.1" xmlns:xlink="http://www.w3.org/1999/xlink" xmlns:svgjs="http://svgjs.dev/svgjs" width="1500" height="428" viewBox="0 0 1500 428"><g transform="matrix(1,0,0,1,3.501423415529189,5.676689292073917)"><svg viewBox="0 0 396 113" data-background-color="#000000" preserveAspectRatio="xMidYMid meet" height="428" width="1500" xmlns="http://www.w3.org/2000/svg" xmlns:xlink="http://www.w3.org/1999/xlink"><g id="tight-bounds" transform="matrix(1,0,0,1,0.3251087283802008,-0.10229898061987797)"><svg viewBox="0 0 395.52 113.20459796123974" height="113.20459796123974" width="395.52"><g><svg viewBox="0 0 569.3673614371949 162.9626902400625" height="113.20459796123974" width="395.52"><g transform="matrix(1,0,0,1,173.84736143719482,50.35783667082145)"><svg viewBox="0 0 395.52 62.2470168984196" height="62.2470168984196" width="395.52"><g id="textblocktransform"><svg viewBox="0 0 395.52 62.2470168984196" height="62.2470168984196" width="395.52" id="textblock"><g><svg viewBox="0 0 395.52 62.2470168984196" height="62.2470168984196" width="395.52"><g transform="matrix(1,0,0,1,0,0)"><svg width="395.52" viewBox="1.05 -36.55 235.39701361098 37.05" height="62.2470168984196" data-palette-color="#89939e"><path d="M1.05-34.05L1.05-35 16.65-35 16.65-34.05 13.75-34.05 13.75-18.55 23.7-18.55 23.7-34.05 20.75-34.05 20.75-35 36.4-35 36.4-34.05 33.45-34.05 33.45-0.95 36.4-0.95 36.4 0 20.75 0 20.75-0.95 23.7-0.95 23.7-17.25 13.75-17.25 13.75-0.95 16.65-0.95 16.65 0 1.05 0 1.05-0.95 4-0.95 4-34.05 1.05-34.05ZM54.1-9.85L54.1-9.85 54.1-14.1Q54.1-18.95 53.57-21.18 53.05-23.4 51.15-23.4L51.15-23.4Q50.05-23.4 49.37-22.78 48.7-22.15 48.4-20.7L48.4-20.7Q47.95-18.45 47.95-13.85L47.95-13.85 47.95-9.95Q47.95-4.5 48.27-3.4 48.6-2.3 48.95-1.6L48.95-1.6Q49.5-0.4 51.1-0.4L51.1-0.4Q53.05-0.4 53.65-2.65L53.65-2.65Q54.1-4.25 54.1-9.85ZM51 0.5Q44.75 0.5 41.55-2.7 38.35-5.9 38.35-11.88 38.35-17.85 41.77-21.08 45.2-24.3 51.4-24.3 57.6-24.3 60.65-21.33 63.7-18.35 63.7-12.25L63.7-12.25Q63.7 0.5 51 0.5L51 0.5ZM65.1-22.9L65.1-23.8 77.15-23.8 77.15-19.2Q78.8-24.3 84.42-24.3 90.05-24.3 91.25-18.9L91.25-18.9Q93-24.3 98.6-24.3L98.6-24.3Q105.95-24.3 105.95-15.95L105.95-15.95 105.95-0.9 108.75-0.9 108.75 0 94.9 0 94.9-0.9 96.65-0.9 96.65-17.15Q96.65-20.95 96-21.6L96-21.6Q95.7-21.9 95.2-21.9L95.2-21.9Q93.75-21.9 92.65-19.95 91.55-18 91.55-15L91.55-15 91.55-0.9 93.35-0.9 93.35 0 80.5 0 80.5-0.9 82.25-0.9 82.25-17.15Q82.25-20.95 81.6-21.6L81.6-21.6Q81.3-21.9 80.8-21.9L80.8-21.9Q79.4-21.9 78.27-19.78 77.15-17.65 77.15-14.7L77.15-14.7 77.15-0.9 78.95-0.9 78.95 0 65.1 0 65.1-0.9 67.85-0.9 67.85-22.9 65.1-22.9ZM122.64 0.5Q116.19 0.5 112.97-2.83 109.74-6.15 109.74-12.08 109.74-18 113.37-21.15 116.99-24.3 122.59-24.3L122.59-24.3Q133.94-24.3 133.49-12.9L133.49-12.9 119.39-12.9 119.39-10.95Q119.39-6.05 120.64-3.55 121.89-1.05 124.99-1.05L124.99-1.05Q130.79-1.05 132.59-7.25L132.59-7.25 133.49-7.1Q132.54-3.5 130.07-1.5 127.59 0.5 122.64 0.5L122.64 0.5ZM119.44-16.35L119.44-13.9 124.59-13.9 124.59-16.35Q124.59-20.4 124.12-21.88 123.64-23.35 122.22-23.35 120.79-23.35 120.12-21.78 119.44-20.2 119.44-16.35L119.44-16.35ZM135.84-34.05L135.84-35 151.44-35 151.44-34.05 148.54-34.05 148.54-18.55 158.49-18.55 158.49-34.05 155.54-34.05 155.54-35 171.19-35 171.19-34.05 168.24-34.05 168.24-0.95 171.19-0.95 171.19 0 155.54 0 155.54-0.95 158.49-0.95 158.49-17.25 148.54-17.25 148.54-0.95 151.44-0.95 151.44 0 135.84 0 135.84-0.95 138.79-0.95 138.79-34.05 135.84-34.05ZM180.09-27.25Q177.44-27.25 176.31-28.6 175.19-29.95 175.19-31.95 175.19-33.95 176.41-35.25 177.64-36.55 180.14-36.55 182.64-36.55 183.94-35.38 185.24-34.2 185.24-32.02 185.24-29.85 183.99-28.55 182.74-27.25 180.09-27.25ZM172.54-22.9L172.54-23.8 184.79-23.8 184.79-0.9 187.59-0.9 187.59 0 172.74 0 172.74-0.9 175.49-0.9 175.49-22.9 172.54-22.9ZM188.64-22.9L186.59-22.9 186.59-23.8 201.53-23.8 201.53-22.9 198.39-22.9 204.39-6.3 209.79-22.9 206.44-22.9 206.44-23.8 213.19-23.8 213.19-22.9 210.99-22.9 203.59 0 197.89 0 188.64-22.9ZM225.58 0.5Q219.13 0.5 215.91-2.83 212.68-6.15 212.68-12.08 212.68-18 216.31-21.15 219.93-24.3 225.53-24.3L225.53-24.3Q236.88-24.3 236.43-12.9L236.43-12.9 222.33-12.9 222.33-10.95Q222.33-6.05 223.58-3.55 224.83-1.05 227.93-1.05L227.93-1.05Q233.73-1.05 235.53-7.25L235.53-7.25 236.43-7.1Q235.48-3.5 233.01-1.5 230.53 0.5 225.58 0.5L225.58 0.5ZM222.38-16.35L222.38-13.9 227.53-13.9 227.53-16.35Q227.53-20.4 227.06-21.88 226.58-23.35 225.16-23.35 223.73-23.35 223.06-21.78 222.38-20.2 222.38-16.35L222.38-16.35Z" opacity="1" transform="matrix(1,0,0,1,0,0)" fill="#89939e" class="wordmark-text-0" data-fill-palette-color="primary" id="text-0"></path></svg></g></svg></g></svg></g></svg></g><g><svg viewBox="0 0 159.1523346758835 162.9626902400625" height="162.9626902400625" width="159.1523346758835"><g><svg xmlns="http://www.w3.org/2000/svg" xmlns:xlink="http://www.w3.org/1999/xlink" version="1.1" x="0" y="0" viewBox="4.999023549245447 4.999349531666914 87.79861445487073 89.9006504683331" enable-background="new 0 0 100 100" xml:space="preserve" height="162.9626902400625" width="159.1523346758835" class="icon-icon-0" data-fill-palette-color="accent" id="icon-0"><g fill="#dedede" data-fill-palette-color="accent"><g fill="#dedede" data-fill-palette-color="accent"><path fill="#dedede" d="M92.013 47.005L77.3 32.29V18.95A5.504 5.504 0 0 0 71.801 13.454H66.165A5.5 5.5 0 0 0 61.337 16.33L50.791 5.784A2.677 2.677 0 0 0 47.004 5.784L5.783 47.005A2.67 2.67 0 0 0 5.205 49.923 2.67 2.67 0 0 0 7.677 51.576H18.399V82.42C18.399 89.3 23.997 94.9 30.878 94.9H67.635C74.516 94.9 80.119 89.299 80.119 82.42V51.576H90.12A2.68 2.68 0 0 0 92.597 49.923 2.69 2.69 0 0 0 92.013 47.005M67.634 89.545H30.877A7.13 7.13 0 0 1 23.754 82.42V50.297C24.019 49.84 24.344 49.422 24.734 49.047H73.777C74.168 49.422 74.492 49.84 74.762 50.297V82.42C74.763 86.35 71.564 89.545 67.634 89.545M77.438 46.221C77.427 46.221 77.411 46.23 77.399 46.23H21.119C21.102 46.23 21.092 46.221 21.075 46.221H14.142L48.898 11.464 61.453 24.02A2.68 2.68 0 0 0 64.37 24.601 2.68 2.68 0 0 0 66.027 22.126L66.165 18.81 71.944 18.951V33.399C71.944 34.109 72.224 34.789 72.725 35.293L83.657 46.222H77.438z" data-fill-palette-color="accent"></path></g><g fill="#dedede" data-fill-palette-color="accent"><path fill="#dedede" d="M55.255 55.727H43.262A5.14 5.14 0 0 0 38.126 60.863V72.856A5.14 5.14 0 0 0 43.262 77.992H55.255A5.144 5.144 0 0 0 60.391 72.856V60.862A5.143 5.143 0 0 0 55.255 55.727M56.114 72.855A0.86 0.86 0 0 1 55.255 73.716H43.262A0.86 0.86 0 0 1 42.398 72.855V60.862A0.86 0.86 0 0 1 43.262 60.001H55.255A0.86 0.86 0 0 1 56.114 60.862z" data-fill-palette-color="accent"></path></g></g></svg></g></svg></g></svg></g><defs></defs></svg><rect width="395.52" height="113.20459796123974" fill="none" stroke="none" visibility="hidden"></rect></g></svg></g></svg>